REM DIRINDEX 1\2,1\3
REM DIRNAME cjc039,folder01,folder02
TITLE ""
FILE "1641-1660.mp3" MP3
  TRACK 01 AUDIO
    TITLE "0:"
    INDEX 01 00:00:00
  TRACK 02 AUDIO
    TITLE "2:cjc039_2281"
    INDEX 01 00:00:23
  TRACK 03 AUDIO
    TITLE "0:"
    INDEX 01 00:01:46
  TRACK 04 AUDIO
    TITLE "3:cjc039_2282"
    INDEX 01 00:02:22
  TRACK 05 AUDIO
    TITLE "0:"
    INDEX 01 00:06:02
  TRACK 06 AUDIO
    TITLE "2:cjc039_2283"
    INDEX 01 00:07:52
  TRACK 07 AUDIO
    TITLE "0:"
    INDEX 01 00:09:08
  TRACK 08 AUDIO
    TITLE "3:cjc039_2284"
    INDEX 01 00:09:61
  TRACK 09 AUDIO
    TITLE "0:"
    INDEX 01 00:14:33
  TRACK 10 AUDIO
    TITLE "2:cjc039_2285"
    INDEX 01 00:16:10
  TRACK 11 AUDIO
    TITLE "0:"
    INDEX 01 00:17:10
  TRACK 12 AUDIO
    TITLE "3:cjc039_2286"
    INDEX 01 00:17:65
  TRACK 13 AUDIO
    TITLE "0:"
    INDEX 01 00:21:58
  TRACK 14 AUDIO
    TITLE "2:cjc039_2287"
    INDEX 01 00:23:32
  TRACK 15 AUDIO
    TITLE "0:"
    INDEX 01 00:24:55
  TRACK 16 AUDIO
    TITLE "3:cjc039_2288"
    INDEX 01 00:25:35
  TRACK 17 AUDIO
    TITLE "0:"
    INDEX 01 00:29:48
  TRACK 18 AUDIO
    TITLE "2:cjc039_2289"
    INDEX 01 00:31:27
  TRACK 19 AUDIO
    TITLE "0:"
    INDEX 01 00:32:27
  TRACK 20 AUDIO
    TITLE "3:cjc039_2290"
    INDEX 01 00:33:01
  TRACK 21 AUDIO
    TITLE "0:"
    INDEX 01 00:36:62
  TRACK 22 AUDIO
    TITLE "2:cjc039_2291"
    INDEX 01 00:38:45
  TRACK 23 AUDIO
    TITLE "0:"
    INDEX 01 00:40:09
  TRACK 24 AUDIO
    TITLE "3:cjc039_2292"
    INDEX 01 00:40:66
  TRACK 25 AUDIO
    TITLE "0:"
    INDEX 01 00:45:35
  TRACK 26 AUDIO
    TITLE "2:cjc039_2293"
    INDEX 01 00:47:15
  TRACK 27 AUDIO
    TITLE "0:"
    INDEX 01 00:48:34
  TRACK 28 AUDIO
    TITLE "3:cjc039_2294"
    INDEX 01 00:49:10
  TRACK 29 AUDIO
    TITLE "0:"
    INDEX 01 00:53:13
  TRACK 30 AUDIO
    TITLE "2:cjc039_2295"
    INDEX 01 00:54:66
  TRACK 31 AUDIO
    TITLE "0:"
    INDEX 01 00:56:08
  TRACK 32 AUDIO
    TITLE "3:cjc039_2296"
    INDEX 01 00:56:63
  TRACK 33 AUDIO
    TITLE "0:"
    INDEX 01 01:01:33
  TRACK 34 AUDIO
    TITLE "2:cjc039_2297"
    INDEX 01 01:03:04
  TRACK 35 AUDIO
    TITLE "0:"
    INDEX 01 01:04:05
  TRACK 36 AUDIO
    TITLE "3:cjc039_2298"
    INDEX 01 01:04:56
  TRACK 37 AUDIO
    TITLE "0:"
    INDEX 01 01:07:17
  TRACK 38 AUDIO
    TITLE "2:cjc039_2299"
    INDEX 01 01:08:64
  TRACK 39 AUDIO
    TITLE "0:"
    INDEX 01 01:10:12
  TRACK 40 AUDIO
    TITLE "3:cjc039_2300"
    INDEX 01 01:10:61
  TRACK 41 AUDIO
    TITLE "0:"
    INDEX 01 01:16:32
  TRACK 42 AUDIO
    TITLE "2:cjc039_2301"
    INDEX 01 01:18:06
  TRACK 43 AUDIO
    TITLE "0:"
    INDEX 01 01:19:13
  TRACK 44 AUDIO
    TITLE "3:cjc039_2302"
    INDEX 01 01:19:70
  TRACK 45 AUDIO
    TITLE "0:"
    INDEX 01 01:23:16
  TRACK 46 AUDIO
    TITLE "2:cjc039_2303"
    INDEX 01 01:25:00
  TRACK 47 AUDIO
    TITLE "0:"
    INDEX 01 01:26:32
  TRACK 48 AUDIO
    TITLE "3:cjc039_2304"
    INDEX 01 01:27:08
  TRACK 49 AUDIO
    TITLE "0:"
    INDEX 01 01:30:71
  TRACK 50 AUDIO
    TITLE "2:cjc039_2305"
    INDEX 01 01:32:51
  TRACK 51 AUDIO
    TITLE "0:"
    INDEX 01 01:33:50
  TRACK 52 AUDIO
    TITLE "3:cjc039_2306"
    INDEX 01 01:34:32
  TRACK 53 AUDIO
    TITLE "0:"
    INDEX 01 01:38:14
  TRACK 54 AUDIO
    TITLE "2:cjc039_2307"
    INDEX 01 01:39:63
  TRACK 55 AUDIO
    TITLE "0:"
    INDEX 01 01:41:24
  TRACK 56 AUDIO
    TITLE "3:cjc039_2308"
    INDEX 01 01:41:71
  TRACK 57 AUDIO
    TITLE "0:"
    INDEX 01 01:47:23
  TRACK 58 AUDIO
    TITLE "2:cjc039_2309"
    INDEX 01 01:49:04
  TRACK 59 AUDIO
    TITLE "0:"
    INDEX 01 01:50:07
  TRACK 60 AUDIO
    TITLE "3:cjc039_2310"
    INDEX 01 01:50:62
  TRACK 61 AUDIO
    TITLE "0:"
    INDEX 01 01:55:03
  TRACK 62 AUDIO
    TITLE "2:cjc039_2311"
    INDEX 01 01:56:57
  TRACK 63 AUDIO
    TITLE "0:"
    INDEX 01 01:58:13
  TRACK 64 AUDIO
    TITLE "3:cjc039_2312"
    INDEX 01 01:58:62
  TRACK 65 AUDIO
    TITLE "0:"
    INDEX 01 02:02:05
  TRACK 66 AUDIO
    TITLE "2:cjc039_2313"
    INDEX 01 02:03:51
  TRACK 67 AUDIO
    TITLE "0:"
    INDEX 01 02:04:68
  TRACK 68 AUDIO
    TITLE "3:cjc039_2314"
    INDEX 01 02:05:46
  TRACK 69 AUDIO
    TITLE "0:"
    INDEX 01 02:09:68
  TRACK 70 AUDIO
    TITLE "2:cjc039_2315"
    INDEX 01 02:11:45
  TRACK 71 AUDIO
    TITLE "0:"
    INDEX 01 02:12:56
  TRACK 72 AUDIO
    TITLE "3:cjc039_2316"
    INDEX 01 02:13:36
  TRACK 73 AUDIO
    TITLE "0:"
    INDEX 01 02:17:57
  TRACK 74 AUDIO
    TITLE "2:cjc039_2317"
    INDEX 01 02:19:33
  TRACK 75 AUDIO
    TITLE "0:"
    INDEX 01 02:20:38
  TRACK 76 AUDIO
    TITLE "3:cjc039_2318"
    INDEX 01 02:21:16
  TRACK 77 AUDIO
    TITLE "0:"
    INDEX 01 02:24:53
  TRACK 78 AUDIO
    TITLE "2:cjc039_2319"
    INDEX 01 02:26:33
  TRACK 79 AUDIO
    TITLE "0:"
    INDEX 01 02:27:71
  TRACK 80 AUDIO
    TITLE "3:cjc039_2320"
    INDEX 01 02:28:47
  TRACK 81 AUDIO
    TITLE "0:"
    INDEX 01 02:33:23
